<svg width="256" height="256" viewBox="0 0 256 256" fill="none" xmlns="http://www.w3.org/2000/svg">
<g clip-path="url(#clip0_3_189)">
<path d="M177.376 0.0620562C177.095 0.102065 176.194 0.242097 175.372 0.362124C170.585 1.02227 165.016 3.30279 159.828 6.70356C154.76 10.0443 150.954 13.205 143.422 20.3467C137.633 25.8279 135.269 27.9084 132.565 29.9288C122.168 37.6506 107.385 43.0918 83.6273 47.9529L80.5024 48.593L78.7195 47.4328C67.642 40.2912 56.0637 35.03 43.3235 31.3491C39.4174 30.2089 33.7684 28.9086 30.7436 28.4285C28.2397 28.0484 23.1717 27.9884 21.3287 28.3285C13.3962 29.7888 9.10941 35.21 8.10783 45.0522C7.76729 48.213 7.94757 54.8345 8.50846 60.1557C10.3914 78.4998 14.3377 94.8035 21.0283 112.067C23.6324 118.789 24.1332 120.629 24.1332 123.43C24.1131 126.091 23.1917 128.191 20.7879 130.992C20.2671 131.612 18.4442 133.572 16.7815 135.353C15.0989 137.133 12.9154 139.674 11.9339 140.974C5.38352 149.656 1.61756 160.118 0.255404 173.381C-0.0851347 176.662 -0.0851347 187.645 0.255404 191.285C1.0767 200.207 2.29864 207.429 4.82263 218.492C6.32501 224.993 6.46523 225.753 6.8258 228.294C7.18637 230.894 7.74726 232.235 8.88906 233.315C9.55011 233.955 11.6735 235.095 11.8538 234.915C11.8938 234.895 11.5533 233.795 11.1126 232.475C4.48209 212.85 1.75778 188.605 4.20165 171.081C5.46364 162.099 7.80735 155.197 11.4932 149.756C13.1758 147.255 14.5981 145.635 16.4811 144.095C24.8343 137.293 35.6714 137.053 48.3715 143.395C63.0147 150.716 72.9905 161.939 75.7148 174.181C76.2356 176.542 76.3358 181.683 75.9151 184.204C74.2925 193.886 67.8223 201.148 58.6278 203.628C56.2039 204.288 51.1559 204.368 48.2113 203.808C39.0368 202.048 31.0241 195.626 26.8174 186.664C26.3166 185.564 25.5755 184.044 25.2149 183.244C23.9329 180.543 21.8095 179.363 20.7278 180.743C19.7262 181.983 20.6477 186.184 22.8512 190.385C24.5138 193.586 26.3367 195.986 29.3414 199.007C33.9086 203.588 38.4959 206.189 44.4653 207.549C47.2297 208.189 49.6536 208.389 57.3858 208.589C64.8776 208.789 66.5803 208.969 69.4649 209.89C71.7685 210.63 73.8318 211.63 75.9952 213.07C78.6594 214.851 80.4423 216.371 85.5303 221.192C90.5583 225.953 92.4012 227.534 94.9252 229.234C97.2889 230.814 99.3121 231.815 101.876 232.655C103.759 233.295 105.642 233.695 114.075 235.295C122.168 236.856 126.615 239.216 129.6 243.577L130.521 244.938L130.021 246.718C128.679 251.539 128.078 254.38 128.278 254.78C128.518 255.22 130.421 256 131.303 256C132.465 256 132.625 255.66 133.907 250.539C135.63 243.537 136.271 241.797 138.033 239.176C140.237 235.895 142.24 233.435 145.004 230.674C152.897 222.833 162.672 217.751 172.308 216.491C184.547 214.891 195.845 220.512 201.995 231.294C204.639 235.935 205.921 240.937 205.781 246.158L205.72 248.798L206.321 249.038C208.244 249.839 210.748 248.498 211.55 246.258C211.91 245.218 211.89 242.077 211.51 239.896C210.568 234.455 207.043 227.133 202.876 221.992C201.654 220.492 198.449 217.291 196.466 215.591L195.404 214.691L200.132 206.389C214.294 181.483 215.536 179.443 217.439 177.722C219.322 176.022 221.826 175.542 224.19 176.422C225.752 176.982 227.896 179.143 228.817 181.003C230.74 184.944 230.46 188.305 227.555 196.347C225.231 202.848 224.731 205.549 224.911 210.75C225.071 215.891 226.133 220.172 228.456 224.973C231.441 231.114 235.648 236.016 241.036 239.616C243.5 241.277 245.744 242.357 248.628 243.317C252.234 244.537 254.077 244.277 255.399 242.417L256 241.557L255.96 236.836C255.88 223.653 252.595 209.87 246.505 197.287C244.442 193.026 242.699 189.985 239.975 185.884C237.21 181.743 235.107 179.043 230.84 174.181C226.934 169.72 225.331 167.52 224.029 164.879C222.707 162.159 222.247 160.138 222.247 156.978C222.247 153.777 222.567 151.916 224.13 145.715C226.213 137.573 226.954 133.052 227.234 126.931C227.675 116.909 226.233 107.726 222.447 96.724C221.786 94.7835 219.883 89.8024 218.22 85.6214C210.929 67.3573 209.987 63.3764 209.126 46.9527C208.645 37.5105 208.264 33.2696 207.603 29.3487C206.021 19.9266 202.575 12.5049 197.427 7.3237C193.721 3.62286 189.875 1.48238 184.948 0.422138C183.545 0.12207 178.417 -0.117985 177.376 0.0620562ZM183.585 7.84382C191.959 10.9245 198.89 21.5269 201.794 35.6701C203.958 46.2325 203.497 56.4348 200.412 65.4369C199.751 67.4173 199.651 68.5576 200.112 69.4378C200.272 69.7378 201.253 71.1382 202.295 72.5385C213.593 87.7819 217.159 96.6039 219.322 114.768C220.544 124.99 220.404 133.972 218.821 145.375C217.92 151.876 216.117 159.458 214.915 161.799C214.775 162.099 213.913 164.479 213.012 167.1C212.131 169.72 210.949 172.861 210.408 174.081C206.522 182.743 200.392 190.025 191.538 196.447C186.851 199.867 182.584 202.268 173.85 206.409C152.837 216.371 144.203 219.392 133.827 220.412C130.321 220.752 122.529 220.532 119.083 220.012C111.672 218.852 103.218 216.391 94.1439 212.75C84.9694 209.069 75.5345 204.368 74.6932 203.088C74.2124 202.348 74.4728 201.748 75.7949 200.607C76.456 200.027 77.4575 198.927 78.0385 198.127C78.6194 197.327 79.5008 196.146 79.9815 195.486C81.0632 194.046 82.0849 191.926 82.5256 190.285C82.9863 188.605 83.1265 184.464 82.8461 182.063C82.4855 179.243 81.7644 175.962 80.5224 171.541C78.0785 162.759 76.1555 158.578 72.7902 154.577C72.1892 153.857 71.2477 152.697 70.7069 151.976C70.146 151.256 69.1444 150.056 68.4633 149.316C66.5403 147.215 66.5403 146.795 68.4833 144.555C69.1845 143.735 70.4865 142.234 71.3879 141.194C75.7749 136.113 79.1803 130.912 84.9093 120.509C90.4581 110.467 92.4412 103.105 93.8234 87.4619C94.6247 78.5798 94.5646 74.839 93.563 70.8781C92.6816 67.4373 90.2979 62.1161 88.7153 60.0356C87.7338 58.7554 87.4333 58.0752 87.4333 57.055C87.4333 56.2348 87.5335 56.0347 88.3347 55.1745C90.2378 53.1341 93.8635 51.8138 104.661 49.1932C112.273 47.3328 122.649 45.6524 128.198 45.3723C130.241 45.2723 131.203 45.1323 131.743 44.8722C133.106 44.2121 135.509 41.4314 138.214 37.3905C139.636 35.27 141.519 32.6494 142.4 31.5892C144.484 29.0886 150.032 23.4474 152.576 21.1868C159.788 14.8654 170.224 8.76403 176.114 7.46373C178.297 6.96362 181.702 7.14366 183.585 7.84382ZM30.984 49.4532C33.5481 49.8933 36.1923 50.8336 38.9566 52.2939C47.7505 56.9149 51.6567 61.3759 52.7785 68.1575C53.4195 71.9183 52.1775 75.8592 49.0927 79.9602C46.6288 83.2409 40.6393 88.4821 37.7547 89.9024C34.2892 91.6028 31.6851 90.1025 28.2998 84.4412C25.3751 79.5401 23.1917 74.759 21.8496 70.298C20.9682 67.3973 19.4057 60.4557 19.1253 58.2752C18.5443 53.6142 20.7278 50.1534 24.7341 49.3732C26.1764 49.0932 29.1411 49.1332 30.984 49.4532Z" fill="black"/>
<path d="M177.195 19.3664C175.773 19.6065 172.868 20.5867 171.426 21.3269C166.238 23.9475 160.709 29.1487 156.082 35.8102C153.338 39.731 152.336 41.9716 152.336 44.1921C152.336 46.8327 153.718 48.313 157.845 50.0534C158.846 50.4735 162.893 52.4339 166.839 54.4144C170.805 56.3748 174.591 58.2152 175.252 58.4553C178.798 59.7756 182.103 59.8956 184.487 58.7954C188.914 56.7149 191.217 50.5135 190.937 41.3514C190.817 37.5506 190.516 35.4701 189.214 29.6488C188.333 25.7279 188.113 24.9477 187.291 23.3673C185.589 20.0066 181.983 18.5863 177.195 19.3664ZM178.477 26.208C179.759 27.5483 180.501 29.8488 182.063 37.1505C183.005 41.6115 183.405 45.0122 183.445 48.8731C183.485 51.7938 183.445 52.1539 183.105 52.5339C182.363 53.3541 180.821 53.0141 176.394 51.1336C172.187 49.3332 168.742 47.2728 164.856 44.2521C161.591 41.7115 160.97 40.4912 162.011 38.5708C162.752 37.1705 167.139 31.5692 169.022 29.6088C171.787 26.7481 174.231 25.3678 176.554 25.3478C177.576 25.3478 177.696 25.4078 178.477 26.208Z" fill="black"/>
<path d="M178.097 114.468C177.436 114.728 175.893 115.628 174.691 116.428C173.469 117.249 171.687 118.429 170.745 119.049C168.782 120.309 167.039 122.09 166.338 123.51C165.637 124.95 165.577 126.991 166.198 128.151C166.919 129.511 167.941 130.212 169.263 130.332C170.324 130.412 170.405 130.392 171.046 129.691C171.506 129.211 172.007 128.251 172.568 126.831C173.95 123.23 174.952 122.03 177.776 120.709C180.04 119.629 181.322 119.869 183.666 121.81C184.307 122.35 185.128 122.93 185.468 123.13C186.31 123.57 188.293 123.57 189.154 123.11C190.536 122.37 190.997 120.529 190.216 118.989C189.615 117.829 187.752 116.248 185.909 115.368C182.784 113.868 180.26 113.568 178.097 114.468Z" fill="black"/>
<path d="M200.312 133.672C197.648 134.132 191.197 136.253 188.954 137.393C188.012 137.873 187.391 138.673 187.391 139.414C187.391 140.194 188.032 141.414 188.794 142.054C189.815 142.894 190.777 142.774 193.461 141.474C195.424 140.514 195.985 140.334 197.908 140.054C199.631 139.814 200.432 139.574 201.594 139.014C203.297 138.153 203.437 137.913 203.497 135.833C203.517 134.633 203.457 134.332 203.116 134.012C202.555 133.452 201.914 133.392 200.312 133.672Z" fill="black"/>
<path d="M99.252 138.693C98.9716 138.733 98.2104 138.873 97.5493 138.994C94.6848 139.494 91.7602 141.614 89.757 144.635C86.8324 149.076 86.612 150.816 88.8355 152.317C89.7169 152.937 90.9589 152.917 91.8603 152.317C92.281 152.036 92.8419 151.316 93.3427 150.376C94.3843 148.436 97.0686 145.655 98.6711 144.895C100.975 143.795 102.998 143.835 106.263 145.075C108.447 145.895 109.468 145.955 110.69 145.315C112.373 144.415 112.493 143.134 111.051 141.494C109.829 140.094 108.787 139.674 105.262 139.094C103.399 138.773 100.033 138.553 99.252 138.693Z" fill="black"/>
<path d="M201.113 145.715C194.463 147.515 194.383 147.555 193.681 148.276C193 149.016 192.7 150.016 193 150.576C193.101 150.776 193.481 151.036 193.822 151.156C194.983 151.556 196.105 151.416 198.349 150.556C200.332 149.796 200.693 149.736 202.816 149.656C205.741 149.556 207.704 149.236 208.084 148.816C208.885 147.916 208.725 146.315 207.724 145.275C207.143 144.655 206.962 144.575 206.101 144.595C205.56 144.615 203.317 145.115 201.113 145.715Z" fill="black"/>
<path d="M145.385 146.475C140.157 147.415 135.509 150.376 132.905 154.397C131.643 156.357 131.363 158.118 132.084 159.678C132.925 161.479 134.728 162.519 138.454 163.299C143.803 164.419 144.784 164.779 145.105 165.64C145.485 166.62 146.347 173.421 146.347 175.442C146.347 177.362 146.266 177.782 145.605 179.783C144.444 183.304 143.141 184.944 140.678 186.084C136.811 187.845 132.004 186.644 127.937 182.903C126.916 181.983 125.774 181.103 125.393 180.983C124.332 180.623 123.43 181.143 122.769 182.503C122.308 183.464 122.248 183.764 122.329 184.984C122.489 187.244 123.771 188.905 126.395 190.225C129.56 191.845 132.945 192.486 137.292 192.326C143.021 192.126 145.926 190.665 147.769 187.124C149.311 184.164 150.954 182.403 152.616 181.963C153.338 181.763 153.598 181.783 154.74 182.203C155.922 182.643 156.422 182.683 159.948 182.743C162.091 182.783 165.016 182.723 166.438 182.603C169.563 182.343 170.525 181.963 172.348 180.263C173.049 179.623 174.491 178.362 175.533 177.482C178.077 175.362 178.297 174.922 178.818 170.861C179.058 169.02 179.158 167.36 179.078 166.84C178.918 165.74 178.057 164.719 177.015 164.419C175.953 164.099 173.91 164.119 173.109 164.459C171.867 164.979 171.707 165.359 171.546 168.04C171.366 170.761 170.805 173.281 170.144 174.221C169.543 175.062 168.121 175.922 166.458 176.442C164.676 177.002 161.13 177.042 159.147 176.522C156.122 175.722 153.718 173.961 153.057 172.081C152.897 171.561 152.657 170.221 152.516 169.1C152.096 165.319 152.717 162.759 155.1 158.418C157.424 154.237 157.805 153.317 157.905 151.596C157.965 150.176 157.945 150.016 157.384 149.136C156.222 147.335 152.857 146.175 148.931 146.195C147.769 146.195 146.186 146.335 145.385 146.475Z" fill="black"/>
<path d="M196.766 161.199C195.885 161.459 195.003 162.399 195.003 163.099C195.003 163.899 195.504 164.859 196.225 165.46C196.866 166 196.947 166.02 198.209 165.86C201.053 165.5 201.814 165.62 203.858 166.64C205.901 167.66 206.662 167.78 207.724 167.26C208.585 166.86 210.428 164.919 210.428 164.419C210.428 163.299 208.445 162.199 205.28 161.559C202.976 161.099 197.888 160.878 196.766 161.199Z" fill="black"/>
<path d="M97.1487 163.799C93.7233 164.979 89.4565 167.56 87.5735 169.58C86.4518 170.781 85.8508 172.041 86.0912 172.661C86.3116 173.241 87.233 173.441 88.3748 173.221C89.737 172.941 98.4908 169.3 99.7128 168.5C101.075 167.6 101.235 165.139 100.013 163.819C99.4724 163.259 98.7312 163.259 97.1487 163.799Z" fill="black"/>
<path d="M96.6479 176.522C96.3675 176.562 95.446 176.822 94.6047 177.102C90.6985 178.382 87.7939 181.603 88.4349 183.964C88.7154 185.004 89.6769 186.124 90.4581 186.284C91.3195 186.484 92.9621 185.624 94.164 184.364C94.7048 183.804 95.3258 183.244 95.5462 183.124C95.7865 183.003 96.9684 182.903 98.3506 182.883C100.434 182.883 100.875 182.803 101.596 182.423C102.998 181.683 103.359 180.563 102.677 179.083C101.756 177.042 99.4323 176.062 96.6479 176.522Z" fill="black"/>
<path d="M99.1519 189.365C98.2304 189.785 97.0285 190.905 94.6047 193.666C92.261 196.286 91.9605 197.487 93.2826 198.787C95.0654 200.567 98.5108 199.607 100.374 196.787C101.075 195.746 101.596 195.446 103.258 195.086C106.043 194.506 106.864 193.846 106.864 192.166C106.864 191.025 106.503 190.565 105.161 189.985C104.22 189.585 101.395 188.985 100.474 188.985C100.194 188.985 99.5926 189.165 99.1519 189.365Z" fill="black"/>
<path d="M60.05 166.48C59.3689 166.78 59.3088 166.94 59.389 168.38C59.4891 170.261 60.8112 172.621 62.9947 174.782C64.7174 176.522 66.0595 177.282 67.021 177.082C67.8624 176.902 68.924 175.902 69.2045 175.082C69.505 174.161 69.2646 173.421 68.0226 171.541C66.1196 168.64 64.3768 167.14 62.2134 166.5C60.9114 166.12 60.8713 166.12 60.05 166.48Z" fill="black"/>
<path d="M46.789 172.101C46.5286 172.281 46.2081 172.741 46.0478 173.101C45.5471 174.302 45.6672 174.662 46.9893 175.822C48.3916 177.022 48.9725 177.942 49.6536 179.923C50.555 182.543 51.2761 183.104 53.4195 182.863C55.0821 182.683 55.4627 182.283 55.3225 180.903C55.1222 179.023 54.2608 177.122 52.9588 175.702C50.9957 173.561 48.5117 171.781 47.5302 171.781C47.3699 171.781 47.0494 171.921 46.789 172.101Z" fill="black"/>
<path d="M33.6282 178.482C33.1074 179.283 33.3478 180.563 34.3093 182.023C35.4311 183.764 36.052 185.164 36.633 187.364C36.9134 188.405 37.294 189.405 37.4543 189.565C37.6546 189.765 38.1153 189.885 38.6762 189.885C39.4775 189.885 39.6778 189.785 40.2587 189.165C41.9213 187.344 41.0199 183.364 38.2555 180.403C36.0921 178.102 34.3493 177.382 33.6282 178.482Z" fill="black"/>
</g>
<defs>
<clipPath id="clip0_3_189">
<rect width="256" height="256" fill="white"/>
</clipPath>
</defs>
</svg>
