<svg width="407" height="409" viewBox="0 0 407 409" fill="none" xmlns="http://www.w3.org/2000/svg">
<circle cx="206.5" cy="208.5" r="189.5" fill="#FCE0A2"/>
<circle cx="376" cy="30" r="21" fill="#F1BC19"/>
<circle cx="345" cy="20" r="6" fill="#F1BC19"/>
<circle cx="396" cy="76" r="11" fill="#EE3E54"/>
<circle cx="17" cy="101" r="11" fill="#EE3E54"/>
<circle cx="27" cy="276" r="21" fill="#F1BC19"/>
<circle cx="58.5" cy="291.5" r="5.5" fill="#F1BC19"/>
<circle cx="78.5" cy="398.5" r="10.5" fill="#EE3E54"/>
<circle cx="366.5" cy="342.5" r="10.5" fill="#EE3E54"/>
<path d="M86 285.277L284.975 87C359.774 159.767 325.063 254.022 284.975 294.068C258.086 320.928 164.221 363.416 86 285.277Z" fill="#88AE45" stroke="#472B29" stroke-width="6"/>
<path d="M94.806 274.129C107.147 286.508 121.69 296.451 137.605 303.39C153.519 310.329 170.493 314.127 187.558 314.569C204.622 315.01 221.443 312.086 237.06 305.963C252.677 299.84 266.784 290.639 278.576 278.883C290.367 267.128 299.613 253.05 305.784 237.452C311.955 221.854 314.932 205.042 314.543 187.976C314.155 170.911 310.409 153.925 303.519 137.989C296.63 122.053 286.732 107.48 274.391 95.1L184.598 184.614L94.806 274.129Z" fill="#C0D078"/>
<path d="M107.836 263.136C118.524 273.857 131.119 282.468 144.901 288.477C158.683 294.486 173.383 297.776 188.161 298.158C202.939 298.54 217.507 296.008 231.031 290.705C244.556 285.403 256.773 277.434 266.985 267.254C277.197 257.073 285.204 244.881 290.548 231.373C295.893 217.865 298.47 203.305 298.134 188.526C297.797 173.747 294.553 159.037 288.587 145.236C282.62 131.435 274.049 118.814 263.361 108.093L185.598 185.614L107.836 263.136Z" fill="#F16869"/>
<path d="M86 285.277L284.975 87C359.774 159.767 325.063 254.022 284.975 294.068C258.086 320.928 164.221 363.416 86 285.277Z" stroke="#472B29" stroke-width="6"/>
<path d="M168.5 252.5C160.833 254.667 146.378 262.752 156.5 269.5C165.5 275.5 168.167 261.667 168.5 252.5Z" fill="#8E683F"/>
<path d="M191 256.5C184.833 262.333 175.345 276.295 188 277.5C198.5 278.5 195.167 264.667 191 256.5Z" fill="#8E683F"/>
<path d="M215 250.5C212.333 258.667 209.9 274.2 221.5 271C233.1 267.8 222 256 215 250.5Z" fill="#8E683F"/>
<path d="M236 237C237 245.333 241.4 260.1 251 252.5C260.6 244.9 245 239 236 237Z" fill="#8E683F"/>
<path d="M250 216.5C254.667 223.167 265.2 233.6 270 222C274.8 210.4 258.667 213.5 250 216.5Z" fill="#8E683F"/>
<path d="M256 191.5C262.333 195.167 278.121 199.962 277 189.5C275.5 175.5 263.667 186.5 256 191.5Z" fill="#8E683F"/>
<path d="M251 169C253.667 161.167 261.615 147.538 269 158C275 166.5 260.333 169.5 251 169Z" fill="#8E683F"/>
<path d="M168.5 252.5C160.833 254.667 146.378 262.752 156.5 269.5C165.5 275.5 168.167 261.667 168.5 252.5Z" stroke="#472B29" stroke-width="2.5"/>
<path d="M191 256.5C184.833 262.333 175.345 276.295 188 277.5C198.5 278.5 195.167 264.667 191 256.5Z" stroke="#472B29" stroke-width="2.5"/>
<path d="M215 250.5C212.333 258.667 209.9 274.2 221.5 271C233.1 267.8 222 256 215 250.5Z" stroke="#472B29" stroke-width="2.5"/>
<path d="M236 237C237 245.333 241.4 260.1 251 252.5C260.6 244.9 245 239 236 237Z" stroke="#472B29" stroke-width="2.5"/>
<path d="M250 216.5C254.667 223.167 265.2 233.6 270 222C274.8 210.4 258.667 213.5 250 216.5Z" stroke="#472B29" stroke-width="2.5"/>
<path d="M256 191.5C262.333 195.167 278.121 199.962 277 189.5C275.5 175.5 263.667 186.5 256 191.5Z" stroke="#472B29" stroke-width="2.5"/>
<path d="M251 169C253.667 161.167 261.615 147.538 269 158C275 166.5 260.333 169.5 251 169Z" stroke="#472B29" stroke-width="2.5"/>
<path d="M274.03 96C392.326 230.487 222.495 391.871 96 274.341" stroke="#472B29" stroke-width="3" stroke-linecap="round" stroke-dasharray="143 25 313 0"/>
<path d="M262 109.5C363 224.5 218 362.5 110 262" stroke="#472B29" stroke-width="4.5" stroke-linecap="round" stroke-dasharray="120 10 18 10"/>
</svg>
